<svg width="84" height="80" viewBox="0 0 84 80" fill="none" xmlns="http://www.w3.org/2000/svg">
<path fill-rule="evenodd" clip-rule="evenodd" d="M71.4 43.8508H58.8C51.8406 43.8508 46.2 49.2046 46.2 55.8102V67.7695C46.2 74.375 51.8406 79.7288 58.8 79.7288H71.4C78.3594 79.7288 84 74.375 84 67.7695V55.8102C84 49.2046 78.3594 43.8508 71.4 43.8508ZM25.2 43.8508H12.6C5.64061 43.8508 0 49.2046 0 55.8102V67.7695C0 74.375 5.64061 79.7288 12.6 79.7288H25.2C32.1594 79.7288 37.8 74.375 37.8 67.7695V55.8102C37.8 49.2046 32.1594 43.8508 25.2 43.8508ZM71.4 0H58.8C51.8406 0 46.2 5.35379 46.2 11.9593V23.9186C46.2 30.5242 51.8406 35.878 58.8 35.878H71.4C78.3594 35.878 84 30.5242 84 23.9186V11.9593C84 5.35379 78.3594 0 71.4 0ZM37.8 11.9593V23.9186C37.8 30.5242 32.1594 35.878 25.2 35.878H12.6C5.64061 35.878 0 30.5242 0 23.9186V11.9593C0 5.35379 5.64061 0 12.6 0H25.2C32.1594 0 37.8 5.35379 37.8 11.9593Z" fill="white"/>
</svg>
